<svg width="21" height="22" fill="none" xmlns="http://www.w3.org/2000/svg"><path d="M19.5.5H1.453C.656.5 0 1.203 0 2.047V20c0 .844.656 1.5 1.453 1.5H19.5c.797 0 1.5-.656 1.5-1.5V2.047C21 1.203 20.297.5 19.5.5zm-13.172 18H3.234V8.516h3.094V18.5zM4.781 7.11c-1.031 0-1.828-.798-1.828-1.782A1.83 1.83 0 014.781 3.5c.985 0 1.782.844 1.782 1.828A1.78 1.78 0 014.78 7.11zM18 18.5h-3.14v-4.875c0-1.125 0-2.625-1.594-2.625-1.641 0-1.875 1.266-1.875 2.578V18.5H8.297V8.516h2.953v1.359h.047c.422-.797 1.453-1.64 2.953-1.64 3.14 0 3.75 2.109 3.75 4.78V18.5z" fill="#1B3852"/></svg>