<svg width="32" height="32" fill="none" xmlns="http://www.w3.org/2000/svg"><path d="M30 0c-.25 0-.438.063-.625.125l-19 6A1.95 1.95 0 009 8v14.75A8.161 8.161 0 006 22c-3.313 0-6 2.25-6 5 0 2.813 2.688 5 6 5 3.063 0 5.563-1.938 5.875-4.438.063-.125.063-.312.063-.5V16l17-5.313v8.063c-.875-.438-1.875-.688-2.938-.75-3.313 0-6 2.25-6 5 0 2.813 2.688 5 6 5 3.063 0 5.563-1.938 5.875-4.438.063-.125.063-.312.063-.5 0 0 .062 0 .062-.062V2c0-1.063-.938-1.938-2-2zM6 29c-1.813 0-3-1-3-2 0-.938 1.188-2 3-2 1.75 0 3 1.063 3 2 0 1-1.25 2-3 2zm23-6c0 1-1.25 2-3 2-1.813 0-3-1-3-2 0-.938 1.188-2 3-2 1.75 0 3 1.063 3 2zm0-15.5l-17 5.375V8.75l17-5.375V7.5z" fill="#1B3852"/></svg>