<svg width="32" height="32" fill="none" xmlns="http://www.w3.org/2000/svg"><path d="M25 15.25c0 .438.313.75.75.75h.5a.76.76 0 00.75-.75v-.5c0-.375-.375-.75-.75-.75h-.5a.76.76 0 00-.75.75v.5zm.75 4.75h.5a.76.76 0 00.75-.75v-.5c0-.375-.375-.75-.75-.75h-.5a.76.76 0 00-.75.75v.5c0 .438.313.75.75.75zm-2.25-8.5s-.125-.5-9-.5c-8.938 0-9.063.5-9.063.5S5 11.5 5 18s.438 6.563.438 6.563S5.5 25 14.5 25s9-.438 9-.438.438-.062.438-6.562-.438-6.5-.438-6.5zM32 9c0-1.625-1.375-3-3-3h-8.813l3.375-3.438c.563-.562.563-1.5-.062-2.124-.563-.563-1.5-.563-2.125.062L16 6 10.562.5C9.938-.125 9-.125 8.438.437c-.626.625-.626 1.563-.063 2.126L11.75 6H3a3 3 0 00-3 3v18c0 1.688 1.313 3 3 3h1v2h3l.625-2h16.688L25 32h3v-2h1a3 3 0 003-3V9zm-3 0v18H3V9h26z" fill="#1B3852"/></svg>