<svg width="24" height="32" fill="none" xmlns="http://www.w3.org/2000/svg"><path d="M22 0H2C.875 0 0 .938 0 2v28c0 1.125.875 2 2 2h16c3.25 0 6-2.688 6-6V2c0-1.063-.938-2-2-2zm-1 26c-.063 1.688-1.375 3-3 3H3V3h18v23zM7 15h9c1.063 0 2-.875 2-2V6c0-.5-.5-1-1-1H7c-.563 0-1 .5-1 1v8c0 .563.438 1 1 1zm-1.5 7H7v1.5c0 .313.188.5.5.5h1c.25 0 .5-.188.5-.5V22h1.5c.25 0 .5-.188.5-.5v-1c0-.25-.25-.5-.5-.5H9v-1.5c0-.25-.25-.5-.5-.5h-1c-.313 0-.5.25-.5.5V20H5.5c-.313 0-.5.25-.5.5v1c0 .313.188.5.5.5zm9-1c-.875 0-1.5.688-1.5 1.5 0 .875.625 1.5 1.5 1.5.813 0 1.5-.625 1.5-1.5 0-.813-.688-1.5-1.5-1.5zm1.5-1.5c0 .875.625 1.5 1.5 1.5.813 0 1.5-.625 1.5-1.5 0-.813-.688-1.5-1.5-1.5-.875 0-1.5.688-1.5 1.5z" fill="#1B3852"/></svg>