<svg width="24" height="24" fill="none" xmlns="http://www.w3.org/2000/svg"><path d="M7.734 18.656c0-.093-.093-.187-.234-.187-.14 0-.234.093-.234.187s.093.188.234.14c.14 0 .234-.046.234-.14zm-1.453-.234c0 .094.094.234.235.234.093.047.234 0 .28-.093 0-.094-.046-.188-.187-.235-.14-.047-.28 0-.328.094zm2.11-.047c-.141 0-.235.094-.235.234 0 .094.14.141.281.094.141-.047.235-.094.188-.187 0-.094-.14-.188-.234-.141zm3.046-18C4.97.375 0 5.344 0 11.813c0 5.203 3.234 9.656 7.922 11.25.61.093.797-.282.797-.563v-2.906s-3.281.703-3.985-1.407c0 0-.515-1.359-1.265-1.687 0 0-1.078-.75.047-.75 0 0 1.171.094 1.828 1.219 1.031 1.828 2.718 1.312 3.422.984.093-.75.375-1.265.75-1.594-2.625-.28-5.297-.656-5.297-5.156 0-1.312.375-1.922 1.125-2.765-.14-.329-.516-1.547.14-3.188.938-.281 3.235 1.266 3.235 1.266.937-.282 1.922-.375 2.906-.375 1.031 0 2.016.093 2.953.375 0 0 2.25-1.594 3.235-1.266.656 1.64.234 2.86.14 3.188.75.843 1.219 1.453 1.219 2.765 0 4.5-2.766 4.875-5.39 5.156.421.375.796 1.078.796 2.203 0 1.547-.047 3.516-.047 3.891 0 .328.235.703.844.563 4.688-1.547 7.875-6 7.875-11.203 0-6.47-5.297-11.438-11.813-11.438zm-6.89 16.172c-.094.047-.047.187 0 .281.094.047.187.094.281.047.047-.047.047-.188-.047-.281-.093-.047-.187-.094-.234-.047zm-.516-.375c-.047.094 0 .14.094.187.094.047.188.047.234-.047 0-.046-.046-.093-.14-.14-.094-.047-.14-.047-.188 0zm1.5 1.687c-.047.047-.047.188.094.282.094.093.234.14.281.047.047-.047.047-.188-.047-.282-.093-.093-.234-.14-.328-.047zm-.515-.703c-.094.047-.094.188 0 .282.093.093.187.14.28.093.048-.047.048-.187 0-.281-.093-.094-.187-.14-.28-.094z" fill="#1B3852"/></svg>