<svg xmlns="http://www.w3.org/2000/svg" viewBox="0 0 200.02 68.38"><defs><style>.cls-1{fill:#1b3852;}</style></defs><g id="Layer_2" data-name="Layer 2"><g id="Layer_1-2" data-name="Layer 1"><polygon class="cls-1" points="75.92 16.58 62.89 16.58 54.74 26.79 67.63 26.79 75.92 16.58"/><polygon class="cls-1" points="120.02 53.31 132.91 53.31 142.05 41.98 129.01 41.98 120.02 53.31"/><polygon class="cls-1" points="33.54 16.54 63.23 53.26 76.12 53.26 46.43 16.54 33.54 16.54"/><polygon class="cls-1" points="33.38 41.94 12.89 16.54 0 16.54 20.49 41.94 33.38 41.94"/><polygon class="cls-1" points="118.74 16.58 105.71 16.58 97.81 26.79 89.92 16.58 77.03 16.58 91.66 34.4 76.12 53.26 89.01 53.26 97.81 42.07 106.72 53.3 119.61 53.3 104.11 34.4 118.74 16.58"/><polygon class="cls-1" points="155.09 26.79 165.24 16.53 151.79 16.54 141.91 26.79 137.62 21.96 137.62 0 126.69 0 126.69 21.96 126.69 24.51 152.03 53.3 165.43 53.3 141.91 26.79 155.09 26.79"/><polygon class="cls-1" points="181.63 16.55 171.15 26.79 181.56 26.79 189.6 34.93 181.63 42.91 165.5 26.79 155.09 26.79 181.63 53.32 200.02 34.93 181.63 16.55"/><polygon class="cls-1" points="12.44 68.38 25.33 68.38 45.99 41.94 33.44 41.94 12.44 68.38"/></g></g></svg>