<svg width="24" height="24" fill="none" xmlns="http://www.w3.org/2000/svg"><path d="M23.25 12C23.25 5.578 18 .375 11.578.375 5.484.375.468 5.109 0 11.109l6.234 2.579c.563-.422 1.313-.61 2.016-.61l2.766-3.984v-.047a4.401 4.401 0 014.406-4.406 4.401 4.401 0 014.406 4.406c0 2.437-2.062 4.406-4.5 4.36l-3.984 2.812a3.306 3.306 0 01-3.281 3.468c-1.594 0-2.907-1.171-3.235-2.671L.375 15.188c1.406 4.874 5.86 8.437 11.203 8.437C18 23.625 23.25 18.422 23.25 12zM7.266 18.047l-1.407-.61c.235.563.704.985 1.266 1.22 1.266.515 2.719-.095 3.234-1.313a2.714 2.714 0 000-1.922 2.265 2.265 0 00-1.312-1.313 2.263 2.263 0 00-1.828-.046l1.453.609c.937.375 1.36 1.453.984 2.39-.375.938-1.453 1.36-2.39.985zm8.156-6.094a2.89 2.89 0 002.906-2.906c0-1.64-1.312-2.953-2.906-2.953s-2.906 1.312-2.906 2.953a2.92 2.92 0 002.906 2.906zm0-.75A2.2 2.2 0 0113.219 9c0-1.172.984-2.156 2.203-2.156 1.219 0 2.203.984 2.203 2.156a2.2 2.2 0 01-2.203 2.203z" fill="#1B3852"/></svg>