<svg width="24" height="24" fill="none" xmlns="http://www.w3.org/2000/svg"><path d="M12 .375C5.578.375.375 5.578.375 12S5.578 23.625 12 23.625 23.625 18.422 23.625 12 18.422.375 12 .375zm0 21A9.343 9.343 0 012.625 12c0-5.156 4.172-9.375 9.375-9.375 5.156 0 9.375 4.219 9.375 9.375 0 5.203-4.219 9.375-9.375 9.375zm4.734-12.281c.235-.188.235-.563 0-.797l-1.03-1.031c-.235-.235-.61-.235-.798 0L12 10.172 9.047 7.266c-.188-.235-.563-.235-.797 0l-1.031 1.03c-.235.235-.235.61 0 .798L10.125 12l-2.906 2.953c-.235.188-.235.563 0 .797l1.031 1.031c.234.235.61.235.797 0L12 13.875l2.906 2.906c.188.235.563.235.797 0l1.031-1.031c.235-.234.235-.61 0-.797L13.828 12l2.906-2.906z" fill="#1B3852"/></svg>